<svg xmlns="http://www.w3.org/2000/svg" height="48" viewBox="0 -960 960 960" width="48"><path d="M323.231-238.77h38.846v-86.077h85.769v-38.845h-85.769v-85.385h-38.846v85.385h-85.692v38.845h85.692v86.077Zm209.923-33.538h186.461v-38.23H533.154v38.23Zm0-105.385h186.461v-38.845H533.154v38.845ZM565-539.462l59.769-60.154 59.846 60.154L712.769-568l-60.154-59.077 59.846-59.846-27.846-28.153-59.5 59.461L565-715.076l-28.538 28.153 60.154 59.846L536.77-568 565-539.462Zm-313.999-68.231H434v-38.845H251.001v38.845Zm-52.168 464.922q-22.599 0-39.33-16.732-16.732-16.731-16.732-39.33v-562.334q0-22.599 16.732-39.33 16.731-16.732 39.33-16.732h562.334q22.599 0 39.33 16.732 16.732 16.731 16.732 39.33v562.334q0 22.599-16.732 39.33-16.731 16.732-39.33 16.732H198.833Zm.091-43.845h562.152q4.615 0 8.462-3.846 3.846-3.847 3.846-8.462v-562.152q0-4.615-3.846-8.462-3.847-3.846-8.462-3.846H198.924q-4.615 0-8.462 3.846-3.846 3.847-3.846 8.462v562.152q0 4.615 3.846 8.462 3.847 3.846 8.462 3.846Zm-12.308-586.768v586.768-586.768Z"/></svg>